# xmcd
#
# Track frame offsets:
#	150
#	12291
#	24112
#	35950
#	50933
#	63659
#	76796
#	87307
#	101563
#	112617
#	125359
#	139574
#	151437
#	163260
#	177016
#
# Disc length: 2528 seconds
#
# Revision: 1
# Processed by: cddbd v1.5.2PL0 Copyright (c) Steve Scherf et al.
# Submitted via: audiograbber 1.83.01
#
DISCID=bb09de0f
DTITLE=Ray Charles - theintrocollection CD 3
DYEAR=1953
DGENRE=Blues
TTITLE0=Mess Around
TTITLE1=Roll With My Baby
TTITLE2=The Sun's Gonna Shine Again
TTITLE3=I'm Wondering And Wondering
TTITLE4=The Snow Is Falling
TTITLE5=Baby, Won't You Please Come Home?
TTITLE6=I Wonder Who's Kissing Her Now
TTITLE7=Walking And Talking
TTITLE8=I'll Do Anything But Work
TTITLE9=Lonely Boy
TTITLE10=Some Day (Blues Is My Middle Name)
TTITLE11=Can't You See Darling?
TTITLE12=If I Give You My Love
TTITLE13=This Love Of Mine
TTITLE14=You Always Miss The Water (When The Well Runs Dry)
EXTD=Mess Around
EXTT0=
EXTT1=
EXTT2=
EXTT3=
EXTT4=
EXTT5=
EXTT6=
EXTT7=
EXTT8=
EXTT9=
EXTT10=
EXTT11=
EXTT12=
EXTT13=
EXTT14=
PLAYORDER=
